<?xml version="1.0" encoding="utf-8"?>
<!-- Generator: Adobe Illustrator 25.4.1, SVG Export Plug-In . SVG Version: 6.00 Build 0)  -->
<svg version="1.1" id="Layer_1" xmlns="http://www.w3.org/2000/svg" xmlns:xlink="http://www.w3.org/1999/xlink" x="0px" y="0px"
	 viewBox="0 0 200 200" style="enable-background:new 0 0 200 200;" xml:space="preserve">
<style type="text/css">
	.st0{fill:#E6E6E6;}
	.st1{fill:#5165A2;}
	.st2{fill:#A5C63B;}
	.st3{fill:#CCCCCC;}
	.st4{fill:#95A5A5;}
	.st5{fill:#384C81;}
	.st6{fill:#8FB021;}
	.st7{fill:#7E8C8D;}
	.st8{fill:#297FB8;}
	.st9{enable-background:new    ;}
	.st10{fill:#FFFFFF;}
	.st11{fill:#919090;}
</style>
<g>
	<ellipse class="st0" cx="102.5" cy="183" rx="95.5" ry="2.8"/>
	<g>
		<path class="st1" d="M194.7,118.9l-7.2,16.1l-12.3-0.6c-3.1,4.3-6.6,8.3-10.5,11.7l1.9,12.2l-15.2,8.7l-9.6-7.8
			c-2.5,0.8-5,1.5-7.7,2.1c-2.6,0.6-5.2,0.9-7.8,1.2l-4.6,9.1l-0.9,1.9l-17.5-1.9l-3.2-11.9c-5.1-1.5-9.9-3.8-14.4-6.5l-11,5.5
			l-13.1-11.8l4.4-11.5c-3.1-4.1-5.8-8.7-7.9-13.7l-12.3-1.7l-3.7-17.2l18.2-11.9l6.8,3.7c0,3.9,0.4,7.8,1.2,11.7
			c2.2,10.9,7.8,20.2,15.2,27.4l0,0c12.2,11.6,29.8,17.1,47.5,13.3c23.1-5,39.4-24.2,41.7-46.5l7.3,3.9l0,0l7.4-4.8
			c-0.2,3.7-0.7,7.2-1.5,10.6L194.7,118.9z"/>
		<path class="st2" d="M198,87.8l-6.5,4.3l-11.7,7.7L173,96c0-3.9-0.4-7.8-1.2-11.7c-2.1-9.8-6.7-18.4-13.2-25.3
			c-12.3-13-30.8-19.5-49.6-15.6C85.9,48.3,69.6,67.7,67.3,90L60,86.1l0,0l-7.4,4.8c0.2-3.7,0.7-7.2,1.5-10.6l-8.6-8.6l7.2-16.1
			L65,56.2C68,52,71.6,48,75.5,44.5l-1.9-12.3l15.2-8.7l9.6,7.8c2.5-0.8,5-1.5,7.7-2.1c2.6-0.6,5.2-0.9,7.8-1.2l0,0l5.7-11l17.5,1.9
			l3.2,11.9c5.1,1.5,9.9,3.8,14.4,6.5l11-5.5l13.1,11.6l-4.4,11.5c3.1,4.1,5.8,8.7,7.9,13.7l12.2,2L198,87.8z"/>
		<path class="st3" d="M34.6,77.5c-1.5,7.3-2.1,14.8-1.8,22.3c0.1,2.6-1.9,4.8-4.5,5.1c-0.1,0-0.1,0-0.2,0c-2.5,0-4.6-2-4.8-4.5
			c-0.5-8.3,0.2-16.6,1.9-24.7c0.6-2.6,3.1-4.3,5.7-3.7C33.4,72.3,35.1,74.9,34.6,77.5z"/>
		<path class="st3" d="M8.8,120.6c-2.2,0-4.3-1.7-4.7-3.9C1.6,103.5,1.5,90,3.6,76.8c2-12.8,6.1-25.1,12.3-36.6
			c1.2-2.4,4.1-3.2,6.5-2s3.2,4.1,2,6.5c-11.6,21.7-15.2,46-10.7,70.2c0.5,2.6-1.3,5.1-3.9,5.5C9.4,120.6,9.1,120.6,8.8,120.6z"/>
		<path class="st4" d="M56.9,146.8c0.1-1.2,0.1-2.5,0-3.7l5-7.8l-5.3-9.2l-9.3,0.4c-1.1-0.7-2.1-1.3-3.2-1.9l-4.3-8.3H29.2l-4.3,8.1
			c-0.6,0.2-1.2,0.6-1.8,0.9c-0.6,0.4-1.1,0.6-1.5,0.9l-9.1-0.4l-5.3,9.2l4.8,7.7l0,0c-0.1,1.4-0.1,2.7,0,4.1l-4.8,7.6l5.3,9.2
			l9-0.4c1.2,0.8,2.4,1.5,3.5,2l4.1,8h10.6l1.5-3l0.5-0.9l2.2-4.3c0.6-0.2,1.1-0.6,1.7-0.8c0.6-0.4,1.2-0.7,1.8-1.1l0,0l9.2,0.4
			l5.1-8.7l0.2-0.5l-1.3-2.1L56.9,146.8z M46.1,148.2c-1.5,5.7-6.7,9.2-12.3,9c-0.8,0-1.8-0.1-2.7-0.4c-2-0.6-3.8-1.5-5.2-3l0,0
			l-0.5-0.5l0,0c-2.8-3-4.1-7.3-3-11.6c1.4-5.3,6.3-8.9,11.5-9c0.1,0,0.4,0,0.5,0c0.9,0,1.9,0.1,3,0.5c2.6,0.7,4.7,2.1,6.4,4.1l0,0
			C46.2,140.3,47.1,144.3,46.1,148.2z"/>
		<path class="st0" d="M39.1,62.5c-0.7,1.9-2.6,3-4.5,3c-0.6,0-1.2-0.1-1.8-0.4c-2.5-0.9-3.7-3.8-2.6-6.3
			c3.9-9.7,9.3-18.5,16.1-26.4c6.8-8,14.9-14.8,23.8-20.2c2.2-1.4,5.2-0.6,6.6,1.7c1.4,2.2,0.6,5.2-1.7,6.6
			C59.1,30.1,46.3,45,39.1,62.5z"/>
		<path class="st5" d="M194.7,118.9l-7.2,16.1l-12.3-0.6c-3.1,4.3-6.6,8.3-10.5,11.7l1.9,12.2l-15.2,8.7l-9.6-7.8
			c-2.5,0.8-5,1.5-7.7,2.1c-2.6,0.6-5.2,0.9-7.8,1.2l-4.6,9.1l-38-38c12.2,11.6,29.8,17.1,47.5,13.3c23.1-5,39.4-24.2,41.7-46.5
			l7.3,3.9l0,0l7.4-4.8c-0.2,3.7-0.7,7.2-1.5,10.6L194.7,118.9z"/>
		<path class="st6" d="M191.5,92l-11.7,7.7L173,96c0-3.9-0.4-7.8-1.2-11.7c-2.1-9.8-6.7-18.4-13.2-25.3L191.5,92z"/>
		<path class="st7" d="M61.5,155.2l-5.1,8.7l-9.2-0.4l0,0c-0.6,0.4-1.2,0.7-1.8,1.1c-0.6,0.4-1.1,0.6-1.7,0.8l-2.2,4.3l-15.8-15.8
			c1.4,1.3,3.2,2.4,5.2,3c0.9,0.2,1.8,0.4,2.7,0.4c5.5,0.2,10.7-3.4,12.3-9c1.1-3.9,0.1-7.9-2.2-10.7L61.5,155.2z"/>
	</g>
	<circle class="st8" cx="120.5" cy="95.8" r="48.5"/>
	<g class="st9">
		<path class="st10" d="M80.8,74.5l27.2,0.2l-0.1,8.3l-17.1-0.1L90.8,93l16,0.1l-0.1,8.2l-16-0.1l-0.1,17.9L80.5,119L80.8,74.5z"/>
		<path class="st10" d="M125.8,74.7l-0.3,44.6l-10.1-0.1l0.3-44.6L125.8,74.7z"/>
		<path class="st10" d="M134.6,109c2.7,1.4,6.9,2.8,11.2,2.8c4.6,0,7.1-1.9,7.1-4.8c0-2.8-2.1-4.4-7.4-6.3
			c-7.4-2.6-12.2-6.8-12.1-13.2c0-7.6,6.4-13.4,16.9-13.3c5,0,8.7,1.1,11.4,2.3l-2.3,8.1c-1.8-0.9-4.9-2.1-9.3-2.2
			c-4.4,0-6.5,1.9-6.5,4.3c0,2.8,2.5,4.1,8.2,6.3c7.8,3,11.5,7.1,11.5,13.4c0,7.5-5.8,13.8-18.1,13.7c-5.1,0-10.1-1.4-12.6-2.8
			L134.6,109z"/>
	</g>
	<g class="st9">
		<path class="st11" d="M33.8,154.8v-2.3c-1.3,0-2.7-0.4-3.5-1l0.5-1.5c0.8,0.5,2,1,3.3,1c1.6,0,2.7-0.9,2.7-2.2
			c0-1.2-0.9-2-2.6-2.7c-2.3-0.9-3.7-1.9-3.7-3.9c0-1.9,1.3-3.3,3.4-3.6v-2.3h1.4v2.2c1.4,0,2.3,0.4,2.9,0.8l-0.6,1.5
			c-0.5-0.3-1.4-0.8-2.9-0.8c-1.7,0-2.4,1-2.4,1.9c0,1.2,0.8,1.8,2.8,2.6c2.3,1,3.5,2.1,3.5,4.1c0,1.8-1.2,3.5-3.6,3.8v2.4H33.8z"/>
	</g>
</g>
</svg>
